<?xml version="1.0" encoding="utf-8"?>
<!-- Generator: Adobe Illustrator 16.0.4, SVG Export Plug-In . SVG Version: 6.00 Build 0)  -->
<!DOCTYPE svg PUBLIC "-//W3C//DTD SVG 1.1//EN" "http://www.w3.org/Graphics/SVG/1.1/DTD/svg11.dtd">
<svg version="1.1" id="Layer_1" xmlns="http://www.w3.org/2000/svg" xmlns:xlink="http://www.w3.org/1999/xlink" x="0px" y="0px"
	 width="289.734px" height="223px" viewBox="0 0 289.734 223" enable-background="new 0 0 289.734 223" xml:space="preserve">
<path fill="#B8CFB3" d="M48.937,57.864h-26.44V98.84H5.054V1.937h17.441v39.868h26.438V1.937h17.441v96.902H48.936L48.937,57.864
	L48.937,57.864z"/>
<path fill="#B8CFB3" d="M121.612,1.937h16.476v62.849c0,12.552-2.562,21.643-7.685,27.271c-5.122,5.63-12.206,8.444-21.25,8.444
	c-10.612,0-18.39-2.745-23.324-8.237c-4.938-5.49-7.406-13.865-7.406-25.125V1.938h17.44v62.156c0,7.568,1.017,12.853,3.048,15.851
	c2.027,3,5.397,4.499,10.104,4.499c4.521,0,7.752-1.592,9.689-4.775c1.938-3.185,2.905-8.375,2.905-15.574L121.612,1.937
	L121.612,1.937z"/>
<path fill="#B8CFB3" d="M179.477,48.727h29.9v42.914c-3.416,3.231-7.405,5.562-11.977,6.991c-4.567,1.43-9.113,2.146-13.635,2.146
	c-5.447,0-10.384-0.969-14.812-2.906c-4.432-1.938-8.19-4.959-11.282-9.067c-3.093-4.104-5.491-9.32-7.197-15.643
	c-1.709-6.32-2.562-13.913-2.562-22.772c0-9.228,1.015-17.027,3.045-23.395c2.027-6.368,4.729-11.56,8.099-15.574
	c3.367-4.016,7.29-6.921,11.769-8.721c4.476-1.8,9.204-2.699,14.188-2.699c4.43,0,8.466,0.394,12.112,1.177
	c3.646,0.785,6.667,1.685,9.065,2.699l-3.6,15.089c-1.847-0.831-3.992-1.522-6.437-2.076c-2.447-0.554-5.425-0.831-8.931-0.831
	c-3.229,0-6.16,0.646-8.791,1.938c-2.63,1.293-4.846,3.321-6.646,6.091c-1.8,2.769-3.186,6.346-4.152,10.729
	c-0.97,4.385-1.454,9.621-1.454,15.712c0,11.723,1.775,20.351,5.33,25.888c3.552,5.537,8.236,8.306,14.051,8.306
	c1.847,0,3.621-0.279,5.33-0.839c1.707-0.561,3.206-1.447,4.499-2.663V61.188l-15.919-2.167V48.727H179.477z"/>
<path fill="#B8CFB3" d="M217.407,50.389c0-16.426,2.812-28.932,8.442-37.515C231.477,4.291,240.06,0,251.597,0
	c5.998,0,11.166,1.177,15.504,3.529c4.337,2.354,7.893,5.725,10.66,10.105c2.77,4.385,4.82,9.69,6.159,15.92
	c1.337,6.229,2.008,13.175,2.008,20.834c0,16.428-2.886,28.932-8.651,37.515c-5.77,8.583-14.326,12.874-25.68,12.874
	c-6.092,0-11.282-1.177-15.573-3.529c-4.292-2.354-7.82-5.722-10.59-10.105c-2.77-4.382-4.801-9.689-6.091-15.92
	C218.052,64.993,217.407,58.05,217.407,50.389z M235.68,50.389c0,4.894,0.276,9.438,0.831,13.636
	c0.554,4.2,1.475,7.821,2.769,10.867c1.292,3.045,2.931,5.446,4.915,7.198c1.983,1.754,4.451,2.63,7.406,2.63
	c5.354,0,9.365-2.721,12.044-8.167c2.675-5.444,4.016-14.166,4.016-26.164c0-4.707-0.277-9.158-0.831-13.359
	c-0.556-4.197-1.453-7.843-2.699-10.936c-1.246-3.091-2.885-5.537-4.915-7.337c-2.03-1.799-4.567-2.699-7.613-2.699
	C240.986,16.058,235.68,27.502,235.68,50.389z"/>
<path fill="#7CCFB3" d="M72.799,165.945l2.095-20.035h-0.747l-5.532,17.941L51.57,200.63h-6.277l-18.09-36.927l-5.532-18.092h-0.897
	l2.839,20.183v54.122H5.82V115.26h18.09l21.827,45.301l3.588,13.006h0.599l3.438-13.306l20.482-45.001h17.793v104.656H72.8
	L72.799,165.945L72.799,165.945z"/>
<path fill="#7CCFB3" d="M106.735,115.26h18.838v104.656h-18.838V115.26z"/>
<path fill="#7CCFB3" d="M163.697,168.484l-6.877-18.391h-0.745l2.392,18.092v51.729h-17.792v-105.4h14.504l30.05,52.625l6.428,18.09
	h0.898l-2.393-17.791V115.26h17.791v105.404H193.45L163.697,168.484z"/>
<path fill="#7CCFB3" d="M284.199,132.605h-24.67v87.312h-18.838v-87.312h-24.816V115.26H284.2L284.199,132.605L284.199,132.605z"/>
</svg>
