<?xml version="1.0" encoding="utf-8"?>
<!-- Generator: Adobe Illustrator 16.0.4, SVG Export Plug-In . SVG Version: 6.00 Build 0)  -->
<!DOCTYPE svg PUBLIC "-//W3C//DTD SVG 1.1//EN" "http://www.w3.org/Graphics/SVG/1.1/DTD/svg11.dtd">
<svg version="1.1" id="Layer_1" xmlns="http://www.w3.org/2000/svg" xmlns:xlink="http://www.w3.org/1999/xlink" x="0px" y="0px"
	 width="556.471px" height="103.529px" viewBox="0 0 556.471 103.529" enable-background="new 0 0 556.471 103.529"
	 xml:space="preserve">
<path fill="#00763A" d="M48.937,59.137h-26.44v40.976H5.054V3.21h17.442v39.868h26.44V3.21h17.442v96.902H48.937V59.137z"/>
<path fill="#00763A" d="M121.612,3.21h16.474v62.848c0,12.552-2.561,21.643-7.683,27.271c-5.122,5.63-12.206,8.444-21.25,8.444
	c-10.614,0-18.39-2.745-23.326-8.237c-4.938-5.49-7.406-13.865-7.406-25.125V3.21h17.442v62.156c0,7.568,1.015,12.853,3.046,15.851
	c2.029,3,5.399,4.499,10.105,4.499c4.521,0,7.752-1.592,9.69-4.776c1.938-3.184,2.907-8.375,2.907-15.574V3.21z"/>
<path fill="#00763A" d="M179.477,50h29.901v42.914c-3.416,3.231-7.406,5.561-11.975,6.991s-9.115,2.146-13.635,2.146
	c-5.447,0-10.383-0.969-14.812-2.907c-4.43-1.938-8.191-4.959-11.282-9.067c-3.093-4.105-5.492-9.32-7.198-15.643
	c-1.709-6.32-2.561-13.913-2.561-22.772c0-9.228,1.014-17.027,3.045-23.395c2.029-6.368,4.729-11.559,8.098-15.574
	c3.368-4.015,7.29-6.921,11.767-8.721c4.476-1.799,9.206-2.699,14.189-2.699c4.43,0,8.466,0.394,12.113,1.177
	c3.645,0.785,6.667,1.685,9.067,2.699l-3.599,15.089c-1.847-0.831-3.993-1.522-6.437-2.076c-2.447-0.554-5.423-0.831-8.929-0.831
	c-3.231,0-6.16,0.646-8.791,1.938c-2.63,1.293-4.845,3.322-6.645,6.091s-3.184,6.346-4.153,10.729
	c-0.969,4.384-1.454,9.621-1.454,15.712c0,11.722,1.776,20.35,5.33,25.887c3.552,5.537,8.237,8.306,14.051,8.306
	c1.845,0,3.621-0.279,5.33-0.839c1.707-0.56,3.206-1.447,4.499-2.663V62.459l-15.919-2.167V50z"/>
<path fill="#00763A" d="M217.407,51.662c0-16.426,2.814-28.932,8.444-37.515c5.628-8.583,14.211-12.874,25.748-12.874
	c5.998,0,11.166,1.177,15.504,3.53c4.337,2.354,7.891,5.724,10.66,10.105c2.769,4.385,4.821,9.69,6.16,15.92
	c1.337,6.229,2.007,13.175,2.007,20.834c0,16.428-2.885,28.932-8.651,37.515c-5.769,8.583-14.328,12.874-25.68,12.874
	c-6.091,0-11.282-1.177-15.573-3.53c-4.292-2.354-7.822-5.721-10.59-10.105c-2.769-4.382-4.8-9.69-6.091-15.92
	C218.052,66.266,217.407,59.323,217.407,51.662z M235.68,51.662c0,4.893,0.277,9.437,0.831,13.636
	c0.554,4.2,1.475,7.821,2.769,10.867c1.292,3.045,2.929,5.446,4.915,7.198c1.983,1.754,4.451,2.63,7.406,2.63
	c5.352,0,9.366-2.721,12.044-8.167c2.675-5.444,4.014-14.166,4.014-26.164c0-4.707-0.277-9.158-0.831-13.359
	c-0.554-4.198-1.453-7.843-2.699-10.936c-1.246-3.091-2.885-5.537-4.915-7.337c-2.031-1.799-4.568-2.699-7.614-2.699
	C240.986,17.331,235.68,28.775,235.68,51.662z"/>
<path fill="#B8CFB3" d="M358.191,50.139l1.938-18.55h-0.691l-5.122,16.612l-15.781,34.054h-5.814l-16.75-34.192l-5.122-16.75h-0.831
	L312.647,50v50.112h-16.474V3.21h16.75l20.211,41.945l3.322,12.043h0.554l3.185-12.32L359.16,3.21h16.474v96.902h-17.442V50.139z"/>
<path fill="#B8CFB3" d="M389.613,3.21h17.442v96.902h-17.442V3.21z"/>
<path fill="#B8CFB3" d="M442.355,52.492l-6.368-17.027h-0.691l2.215,16.75v47.897h-16.474V2.518h13.428l27.825,48.728l5.952,16.75
	h0.831l-2.215-16.474V3.21h16.473v97.595h-13.428L442.355,52.492z"/>
<path fill="#B8CFB3" d="M553.931,19.269h-22.842v80.844h-17.442V19.269h-22.979V3.21h63.264V19.269z"/>
</svg>
