<?xml version="1.0" encoding="utf-8"?>
<!-- Generator: Adobe Illustrator 16.0.4, SVG Export Plug-In . SVG Version: 6.00 Build 0)  -->
<!DOCTYPE svg PUBLIC "-//W3C//DTD SVG 1.1//EN" "http://www.w3.org/Graphics/SVG/1.1/DTD/svg11.dtd">
<svg version="1.1" id="Calque_1" xmlns="http://www.w3.org/2000/svg" xmlns:xlink="http://www.w3.org/1999/xlink" x="0px" y="0px"
	 width="575.971px" height="469.477px" viewBox="0 0 575.971 469.477" enable-background="new 0 0 575.971 469.477"
	 xml:space="preserve">
<g>
	<path fill-rule="evenodd" clip-rule="evenodd" fill="#0D0C08" d="M345.548,254.323c1.927,2.527,4.286,4.112,7.006,5.311
		c10.086,4.444,20.162,8.907,30.206,13.443c20.451,9.24,30.027,25.243,29.138,47.595c-0.856,21.516-1.266,43.048-1.899,64.572
		c-0.442,15.062-0.809,30.128-1.509,45.176c-0.131,2.791,0.745,3.008,2.942,2.988c8.472-0.072,16.942-0.051,25.414-0.022
		c4.78,0.017,7.533,2.376,7.378,6.218c-0.145,3.515-2.989,5.792-7.448,5.792c-98.576,0.013-197.152,0.013-295.729-0.001
		c-4.34-0.002-7.246-2.479-7.263-5.984c-0.017-3.693,2.643-5.999,7.118-6.021c8.01-0.039,16.04-0.359,24.021,0.121
		c4.763,0.285,5.247-1.285,5.065-5.546c-0.69-16.14-0.854-32.3-1.267-48.452c-0.549-21.528-1.569-43.055-1.597-64.583
		c-0.024-18.586,9.05-32.2,25.704-40.36c10.302-5.047,20.911-9.477,31.435-14.065c3.175-1.385,5.712-3.462,8.431-6.119
		c-13.548-4.395-26.593-9.057-39.145-14.975c-1.66-0.781-3.437-1.396-4.936-2.418c-2.489-1.696-3.707-4-2.506-7.128
		c10.14-26.406,12.223-54.021,12.447-81.95c0.116-14.285-0.817-28.588,1.614-42.833c6.408-37.554,39.15-68.61,77.288-72.959
		c47.456-5.411,88.916,23.715,99.773,70.146c1.508,6.447,2.195,13.022,2.264,19.645c0.212,20.767-0.707,41.559,1.881,62.265
		c1.887,15.104,4.346,30.043,10.061,44.267c1.949,4.85,1.027,7.182-3.944,9.575c-12.423,5.982-25.294,10.842-38.391,15.126
		C347.962,253.518,346.826,253.9,345.548,254.323z M288.921,328.925c-24.941,0-49.88-0.005-74.819,0.004
		c-6.898,0.002-9.443,2.868-8.958,9.616c0.649,9.04,1.129,18.091,1.657,27.139c1.127,19.326,2.576,38.642,3.182,57.983
		c0.225,7.172,3.848,9.761,10.761,9.737c44.336-0.153,88.672-0.078,133.009-0.079c2.153,0,4.317,0.104,6.464-0.029
		c4.878-0.305,7.229-2.589,7.548-7.504c0.604-9.351,1.072-18.713,1.61-28.066c1.132-19.634,2.194-39.273,3.453-58.899
		c0.451-7.04-1.938-9.896-9.091-9.899C338.797,328.92,313.859,328.925,288.921,328.925z M252.364,117.327
		c-1.519,3.743-2.892,7.146-4.285,10.541c-0.34,0.831-0.846,1.518-0.082,2.499c2.834,3.639,1.295,6.832-1.081,10
		c-2.318,3.092-4.845,5.987-7.759,8.504c-7.121,6.151-9.618,6.136-16.939,0.166c-2.08-1.696-4.492-2.074-6.926-1.159
		c-2.492,0.938-3.924,2.932-4.062,5.638c-0.117,2.302-0.179,4.622-0.042,6.92c0.263,4.423,2.483,6.482,7.049,6.777
		c7.467,0.482,11.742,4.153,13.447,11.545c6.402,27.764,27.488,45.425,55.849,46.775c30.481,1.452,57.691-22.945,59.509-53.375
		c0.536-8.957-2.887-15.814-10.816-20.288c-4.563-2.575-9.399-4.467-14.371-6.072C298.004,138.09,273.277,132.549,252.364,117.327z
		 M289.499,316.321c23.712,0,47.422-0.049,71.131,0.063c2.88,0.013,4.777-0.728,6.575-3.089c5.402-7.096,10.925-14.12,16.755-20.864
		c2.663-3.081,1.881-4.547-1.283-5.96c-9.923-4.434-19.875-8.797-29.728-13.379c-2.47-1.149-3.166-0.072-4.081,1.829
		c-2.725,5.663-5.493,11.31-8.427,16.867c-4.378,8.295-12.618,12.173-21.609,10.25c-5.001-1.068-8.78-4.396-12.566-7.479
		c-2.35-1.914-3.492-1.719-4.756,0.879c-0.665,1.362-1.638,2.606-2.621,3.778c-5.434,6.473-14.091,6.504-19.66,0.194
		c-1.798-2.036-2.563-6.148-4.961-6.056c-2.435,0.092-4.78,2.975-7.136,4.677c-11.249,8.123-23.684,5.112-30.029-7.304
		c-2.721-5.323-5.431-10.654-8.083-16.012c-0.747-1.509-1.212-2.565-3.372-1.562c-9.856,4.582-19.813,8.944-29.724,13.407
		c-2.912,1.312-3.874,2.729-1.297,5.715c5.526,6.401,10.883,12.981,15.844,19.824c2.493,3.442,5.278,4.325,9.284,4.297
		C243.003,316.24,266.251,316.321,289.499,316.321z M378.928,433.422c5.17,0,9.938-0.117,14.693,0.051
		c2.349,0.083,2.725-0.872,2.778-2.955c0.453-17.21,1.06-34.417,1.553-51.626c0.52-18.133,0.937-36.269,1.455-54.401
		c0.254-8.914,0.814-17.857-4.638-26.143c-5.459,6.804-10.799,13.529-16.239,20.173c-1.054,1.287-0.827,2.03,0.28,3.021
		c5.859,5.246,6.624,12.074,6.189,19.407c-1.307,21.938-2.278,43.901-3.793,65.823C380.605,415.493,381.047,424.32,378.928,433.422z
		 M183.974,298.312c-3.933,6.168-5.103,12.665-4.9,19.542c0.789,26.889,1.546,53.778,2.318,80.666
		c0.304,10.6,0.61,21.201,0.926,31.802c0.043,1.449-0.458,3.175,2.081,3.124c4.848-0.095,9.698-0.026,14.732-0.026
		c-1.755-6.98-1.421-13.624-1.797-20.215c-1.431-25.158-2.893-50.312-4.369-75.468c-0.373-6.353,1.492-11.831,6.231-16.164
		c1.274-1.166,2.004-1.93,0.575-3.649C194.477,311.539,189.352,305.02,183.974,298.312z M262.915,244.886
		c0.768,4-1.26,8.572,1.951,12.903c7.593,10.235,14.886,20.701,22.043,31.247c2.057,3.031,2.753,2.004,4.276-0.254
		c4.64-6.876,8.889-14.141,14.362-20.296c8.01-9.004,11.031-18.943,9.587-30.75c-0.417-3.404-0.473-4.494-4.33-3.164
		c-12.322,4.25-24.955,4.515-37.682,1.805c-3.271-0.696-7.491-3.769-9.397-2.093C261.511,236.232,263.289,240.961,262.915,244.886z
		 M254.642,290.296c4.728-0.186,7.293-4.153,10.921-6.26c2.034-1.181,1.708-2.219,0.475-3.867
		c-3.587-4.79-6.969-9.733-10.471-14.587c-6.974-9.667-6.957-9.629-15.679-1.272c-1.181,1.13-1.591,1.951-0.797,3.485
		c3.24,6.259,6.334,12.591,9.568,18.854C249.872,288.997,251.895,290.264,254.642,290.296z M329.024,256.562
		c-4.325,6.008-8.529,11.836-12.721,17.673c-6.461,8.998-6.457,9,2.796,14.78c3.829,2.39,7.954,1.521,10.259-2.397
		c1.706-2.898,3.238-5.924,4.595-9.004c1.766-4.015,6.2-8.098,4.949-11.831C337.682,262.14,332.676,259.764,329.024,256.562z"/>
	<path fill-rule="evenodd" clip-rule="evenodd" fill="#F6F9FB" d="M288.921,328.925c24.938,0,49.876-0.005,74.816,0.002
		c7.153,0.004,9.542,2.859,9.091,9.899c-1.259,19.626-2.321,39.266-3.453,58.899c-0.538,9.354-1.006,18.716-1.61,28.066
		c-0.318,4.915-2.67,7.199-7.548,7.504c-2.146,0.134-4.311,0.029-6.464,0.029c-44.337,0.001-88.673-0.074-133.009,0.079
		c-6.914,0.023-10.537-2.565-10.761-9.737c-0.606-19.342-2.055-38.657-3.182-57.983c-0.528-9.048-1.008-18.099-1.657-27.139
		c-0.485-6.748,2.06-9.614,8.958-9.616C239.041,328.92,263.98,328.925,288.921,328.925z M266.767,384.001
		c-0.031,12.605,9.822,22.631,22.242,22.631c12.239,0,22.205-9.942,22.239-22.186c0.036-12.723-9.618-22.478-22.247-22.475
		C276.544,361.976,266.796,371.634,266.767,384.001z"/>
	<path fill-rule="evenodd" clip-rule="evenodd" fill="#EEBF85" d="M252.364,117.327c20.913,15.222,45.64,20.764,69.49,28.47
		c4.972,1.605,9.808,3.497,14.371,6.072c7.93,4.474,11.353,11.331,10.816,20.288c-1.817,30.431-29.027,54.828-59.509,53.375
		c-28.361-1.351-49.447-19.011-55.849-46.775c-1.705-7.392-5.979-11.063-13.447-11.545c-4.566-0.294-6.787-2.354-7.049-6.777
		c-0.136-2.298-0.075-4.618,0.042-6.92c0.138-2.706,1.571-4.7,4.062-5.638c2.434-0.915,4.846-0.537,6.926,1.159
		c7.322,5.97,9.819,5.985,16.939-0.166c2.914-2.518,5.441-5.412,7.759-8.504c2.376-3.169,3.915-6.361,1.081-10
		c-0.764-0.981-0.258-1.668,0.082-2.499C249.472,124.472,250.845,121.069,252.364,117.327z"/>
	<path fill-rule="evenodd" clip-rule="evenodd" fill="#F9EC31" d="M289.499,316.321c-23.248,0-46.497-0.081-69.744,0.078
		c-4.005,0.028-6.791-0.854-9.284-4.297c-4.961-6.843-10.318-13.423-15.844-19.824c-2.577-2.985-1.615-4.402,1.297-5.715
		c9.91-4.463,19.867-8.825,29.724-13.407c2.16-1.004,2.625,0.053,3.372,1.562c2.652,5.357,5.361,10.688,8.083,16.012
		c6.345,12.416,18.78,15.427,30.029,7.304c2.356-1.702,4.701-4.585,7.136-4.677c2.397-0.093,3.163,4.02,4.961,6.056
		c5.569,6.31,14.227,6.278,19.66-0.194c0.983-1.172,1.956-2.416,2.621-3.778c1.264-2.598,2.406-2.793,4.756-0.879
		c3.786,3.083,7.565,6.41,12.566,7.479c8.991,1.923,17.231-1.955,21.609-10.25c2.934-5.558,5.702-11.204,8.427-16.867
		c0.915-1.901,1.611-2.979,4.081-1.829c9.853,4.582,19.805,8.945,29.728,13.379c3.164,1.413,3.946,2.879,1.283,5.96
		c-5.83,6.744-11.353,13.769-16.755,20.864c-1.798,2.361-3.695,3.102-6.575,3.089C336.921,316.272,313.211,316.321,289.499,316.321z
		"/>
	<path fill-rule="evenodd" clip-rule="evenodd" fill="#1B75BB" d="M378.928,433.422c2.119-9.102,1.677-17.929,2.279-26.649
		c1.515-21.922,2.486-43.885,3.793-65.823c0.435-7.333-0.33-14.161-6.189-19.407c-1.107-0.991-1.334-1.734-0.28-3.021
		c5.44-6.644,10.78-13.369,16.239-20.173c5.452,8.285,4.892,17.229,4.638,26.143c-0.519,18.133-0.936,36.269-1.455,54.401
		c-0.493,17.209-1.1,34.416-1.553,51.626c-0.054,2.083-0.43,3.038-2.778,2.955C388.865,433.305,384.098,433.422,378.928,433.422z"/>
	<path fill-rule="evenodd" clip-rule="evenodd" fill="#1B75BB" d="M183.974,298.312c5.378,6.708,10.503,13.228,15.798,19.611
		c1.429,1.72,0.699,2.483-0.575,3.649c-4.739,4.333-6.604,9.812-6.231,16.164c1.476,25.156,2.938,50.31,4.369,75.468
		c0.375,6.591,0.042,13.234,1.797,20.215c-5.034,0-9.884-0.068-14.732,0.026c-2.539,0.051-2.038-1.675-2.081-3.124
		c-0.316-10.601-0.622-21.202-0.926-31.802c-0.771-26.888-1.529-53.777-2.318-80.666
		C178.871,310.977,180.041,304.479,183.974,298.312z"/>
	<path fill-rule="evenodd" clip-rule="evenodd" fill="#EEBF85" d="M262.915,244.886c0.374-3.925-1.404-8.653,0.811-10.601
		c1.906-1.676,6.127,1.397,9.397,2.093c12.727,2.71,25.359,2.444,37.682-1.805c3.857-1.331,3.913-0.241,4.33,3.164
		c1.444,11.807-1.577,21.746-9.587,30.75c-5.474,6.155-9.723,13.42-14.362,20.296c-1.523,2.258-2.22,3.285-4.276,0.254
		c-7.157-10.546-14.45-21.012-22.043-31.247C261.656,253.458,263.683,248.886,262.915,244.886z"/>
	<path fill-rule="evenodd" clip-rule="evenodd" fill="#FAAF40" d="M254.642,290.296c-2.748-0.032-4.77-1.299-5.982-3.647
		c-3.234-6.263-6.328-12.595-9.568-18.854c-0.794-1.534-0.384-2.355,0.797-3.485c8.723-8.356,8.706-8.395,15.679,1.272
		c3.502,4.854,6.884,9.797,10.471,14.587c1.233,1.648,1.56,2.687-0.475,3.867C261.936,286.143,259.37,290.11,254.642,290.296z"/>
	<path fill-rule="evenodd" clip-rule="evenodd" fill="#FAAF40" d="M329.024,256.562c3.652,3.202,8.658,5.578,9.878,9.221
		c1.251,3.733-3.184,7.816-4.949,11.831c-1.356,3.08-2.889,6.105-4.595,9.004c-2.305,3.919-6.43,4.787-10.259,2.397
		c-9.253-5.78-9.257-5.782-2.796-14.78C320.494,268.397,324.698,262.569,329.024,256.562z"/>
	<path fill-rule="evenodd" clip-rule="evenodd" fill="#0D0C08" d="M266.767,384.001c0.029-12.367,9.777-22.025,22.234-22.029
		c12.629-0.003,22.283,9.752,22.247,22.475c-0.034,12.243-10,22.186-22.239,22.186C276.59,406.632,266.737,396.606,266.767,384.001z
		 M289.13,374.228c-5.667-0.049-10.335,4.551-10.273,10.121c0.058,5.3,4.711,9.978,10.023,10.073
		c5.22,0.096,10.088-4.56,10.273-9.816C299.351,379.038,294.749,374.276,289.13,374.228z"/>
	<path fill-rule="evenodd" clip-rule="evenodd" fill="#F6F9FB" d="M289.13,374.228c5.619,0.049,10.221,4.811,10.023,10.378
		c-0.186,5.257-5.054,9.912-10.273,9.816c-5.312-0.096-9.966-4.773-10.023-10.073C278.795,378.778,283.464,374.179,289.13,374.228z"
		/>
</g>
</svg>
